<?xml version="1.0" encoding="utf-8"?>
<!-- Generator: Adobe Illustrator 16.0.0, SVG Export Plug-In . SVG Version: 6.00 Build 0)  -->
<!DOCTYPE svg PUBLIC "-//W3C//DTD SVG 1.1//EN" "http://www.w3.org/Graphics/SVG/1.1/DTD/svg11.dtd">
<svg version="1.1" id="Layer_1" xmlns="http://www.w3.org/2000/svg" xmlns:xlink="http://www.w3.org/1999/xlink" x="0px" y="0px"
	 width="400px" height="400px" viewBox="369.467 -448.742 400 400" enable-background="new 369.467 -448.742 400 400"
	 xml:space="preserve">
<path fill="#FFFFFF" d="M600.667-230.542c0,0-5.701,9.3-8.801,11.9c-3.1,2.6-12.4,5.2-12.4,5.2s-5.699-0.5-6.699,2.6
	s-9.199,11.9-7.9,14c1.201,2.1-8.6,15-8.6,15l-8.301,4.1l5.201-8.3l9.299-14.5l6.201-14.5l5.699-8l10.9-10.3h6.199
	c0,0,2.102-15.8,2.602-17.4c0.5-1.6,1.6-9.3,1.6-9.3l0.5-8.3l4.699,12.4l-2.4,14L600.667-230.542z M515.267-215.941l-16,5.2
	l10.9-11.9l6.699-3.6h4.1l5.701-10.3c0,0,0-2.6,4.1-5.2l4.1-2.6h11.9h5.199l7.801-6.2l8.801-5.2c0,0-16,19.1-17.102,19.1
	c-1,0-17.6,14-17.6,14L515.267-215.941z M640.568-201.542c0,0-8.301-8.8-11.9-11.4s0-2.6,0-2.6s-4.701-4.7-6.201-7.2
	c-1.6-2.6-2.1-7.2-5.199-9.8s0.5-8.3,0-9.8c-0.5-1.6,0-8.3,0-8.3s-5.199-19.2-9.301-24.4c-4.1-5.2,2.102-8.8,0-11.9
	c-2.1-3.1,0-5.7,0-5.7l-4.699-5.7v-12.4v-4.7h-2.6l-3.6,3.1l-6.701,6.7l-8.799,16.5l-13,15.5l-4.701,9.8l-2.6,2.1l-12.4,5.7
	l-2.1-12.9h-4.1l-21.1,25l-10.9,5.2h-6.201l-18,23.4c12.301,33.5,44.5,57.3,82.201,57.3c31.5,0,59.199-16.7,74.6-41.7
	C641.568-200.741,640.568-201.542,640.568-201.542"/>
<path opacity="0.7" fill="#FFFFFF" d="M569.466-352.441c-57.1,0-103.6,46.5-103.6,103.6s46.5,103.6,103.6,103.6
	c57.102,0,103.602-46.5,103.602-103.6S626.568-352.441,569.466-352.441 M569.466-133.341c-30.898,0-59.898-12-81.6-33.8
	c-21.799-21.8-33.799-50.8-33.799-81.6c0-30.8,12-59.9,33.799-81.6c21.801-21.8,50.801-33.8,81.6-33.8c30.9,0,59.9,12,81.602,33.8
	c21.799,21.8,33.799,50.8,33.799,81.6c0,30.9-12,59.9-33.799,81.6C629.267-145.441,600.267-133.341,569.466-133.341"/>
</svg>
